<svg xmlns="http://www.w3.org/2000/svg" xmlns:xlink="http://www.w3.org/1999/xlink" version="1.1" width="1016" height="680" name="ml_2.svg" y="0" viewBox="0 0 1016 680">
<polyline points="1016,680 0,680 0,0 1016,0 1016,680" fill="white" />
<text x="835" y="36" fill="#000000" font-size="15" font-family="Arial" > Microgale cowani</text>
<polyline points="745,38 745,29 830,29" fill="none" stroke="#000000" stroke-width="1" stroke-linecap="square"/>
<text x="837" y="55" fill="#000000" font-size="15" font-family="Arial" > Microgale thomasi</text>
<polyline points="745,39 745,48 832,48" fill="none" stroke="#000000" stroke-width="1" stroke-linecap="square"/>
<polyline points="721,52 721,38 745,38" fill="none" stroke="#000000" stroke-width="1" stroke-linecap="square"/>
<text x="799" y="74" fill="#000000" font-size="15" font-family="Arial" > Microgale jobihely</text>
<polyline points="721,53 721,67 794,67" fill="none" stroke="#000000" stroke-width="1" stroke-linecap="square"/>
<polyline points="697,69 697,52 721,52" fill="none" stroke="#000000" stroke-width="1" stroke-linecap="square"/>
<text x="790" y="93" fill="#000000" font-size="15" font-family="Arial" > Microgale gracilis</text>
<polyline points="697,70 697,86 785,86" fill="none" stroke="#000000" stroke-width="1" stroke-linecap="square"/>
<polyline points="669,91 669,69 697,69" fill="none" stroke="#000000" stroke-width="1" stroke-linecap="square"/>
<text x="785" y="112" fill="#000000" font-size="15" font-family="Arial" > Microgale dryas</text>
<polyline points="698,114 698,105 780,105" fill="none" stroke="#000000" stroke-width="1" stroke-linecap="square"/>
<text x="770" y="131" fill="#000000" font-size="15" font-family="Arial" > Microgale gymnorhyncha</text>
<polyline points="698,115 698,124 765,124" fill="none" stroke="#000000" stroke-width="1" stroke-linecap="square"/>
<polyline points="669,92 669,114 698,114" fill="none" stroke="#000000" stroke-width="1" stroke-linecap="square"/>
<polyline points="651,124 651,91 669,91" fill="none" stroke="#000000" stroke-width="1" stroke-linecap="square"/>
<text x="777" y="150" fill="#000000" font-size="15" font-family="Arial" > Microgale soricoides</text>
<polyline points="702,157 702,143 772,143" fill="none" stroke="#000000" stroke-width="1" stroke-linecap="square"/>
<text x="786" y="169" fill="#000000" font-size="15" font-family="Arial" > Microgale fotsifotsy</text>
<polyline points="752,171 752,162 781,162" fill="none" stroke="#000000" stroke-width="1" stroke-linecap="square"/>
<text x="786" y="188" fill="#000000" font-size="15" font-family="Arial" > Microgale nasoloi</text>
<polyline points="752,172 752,181 781,181" fill="none" stroke="#000000" stroke-width="1" stroke-linecap="square"/>
<polyline points="702,158 702,171 752,171" fill="none" stroke="#000000" stroke-width="1" stroke-linecap="square"/>
<polyline points="651,125 651,157 702,157" fill="none" stroke="#000000" stroke-width="1" stroke-linecap="square"/>
<polyline points="627,177 627,124 651,124" fill="none" stroke="#000000" stroke-width="1" stroke-linecap="square"/>
<text x="812" y="207" fill="#000000" font-size="15" font-family="Arial" > Microgale brevicaudata</text>
<polyline points="727,209 727,200 807,200" fill="none" stroke="#000000" stroke-width="1" stroke-linecap="square"/>
<text x="818" y="226" fill="#000000" font-size="15" font-family="Arial" > Microgale grandidieri</text>
<polyline points="727,210 727,219 813,219" fill="none" stroke="#000000" stroke-width="1" stroke-linecap="square"/>
<polyline points="662,230 662,209 727,209" fill="none" stroke="#000000" stroke-width="1" stroke-linecap="square"/>
<text x="797" y="245" fill="#000000" font-size="15" font-family="Arial" > Microgale drouhardi</text>
<polyline points="682,252 682,238 792,238" fill="none" stroke="#000000" stroke-width="1" stroke-linecap="square"/>
<text x="806" y="264" fill="#000000" font-size="15" font-family="Arial" > Microgale monticola</text>
<polyline points="721,266 721,257 801,257" fill="none" stroke="#000000" stroke-width="1" stroke-linecap="square"/>
<text x="780" y="283" fill="#000000" font-size="15" font-family="Arial" > Microgale taiva</text>
<polyline points="721,267 721,276 775,276" fill="none" stroke="#000000" stroke-width="1" stroke-linecap="square"/>
<polyline points="682,253 682,266 721,266" fill="none" stroke="#000000" stroke-width="1" stroke-linecap="square"/>
<polyline points="662,231 662,252 682,252" fill="none" stroke="#000000" stroke-width="1" stroke-linecap="square"/>
<polyline points="627,178 627,230 662,230" fill="none" stroke="#000000" stroke-width="1" stroke-linecap="square"/>
<polyline points="611,243 611,177 627,177" fill="none" stroke="#000000" stroke-width="1" stroke-linecap="square"/>
<text x="764" y="302" fill="#000000" font-size="15" font-family="Arial" > Microgale parvula</text>
<polyline points="640,309 640,295 759,295" fill="none" stroke="#000000" stroke-width="1" stroke-linecap="square"/>
<text x="810" y="321" fill="#000000" font-size="15" font-family="Arial" > Nesogale dobsoni</text>
<polyline points="714,323 714,314 805,314" fill="none" stroke="#000000" stroke-width="1" stroke-linecap="square"/>
<text x="800" y="340" fill="#000000" font-size="15" font-family="Arial" > Nesogale talazaci</text>
<polyline points="714,324 714,333 795,333" fill="none" stroke="#000000" stroke-width="1" stroke-linecap="square"/>
<polyline points="640,310 640,323 714,323" fill="none" stroke="#000000" stroke-width="1" stroke-linecap="square"/>
<polyline points="611,244 611,309 640,309" fill="none" stroke="#000000" stroke-width="1" stroke-linecap="square"/>
<polyline points="583,306 583,243 611,243" fill="none" stroke="#000000" stroke-width="1" stroke-linecap="square"/>
<text x="722" y="359" fill="#000000" font-size="15" font-family="Arial" > Microgale pusilla</text>
<polyline points="635,369 635,352 717,352" fill="none" stroke="#000000" stroke-width="1" stroke-linecap="square"/>
<text x="742" y="378" fill="#000000" font-size="15" font-family="Arial" > Microgale jenkinsae</text>
<polyline points="655,387 655,371 737,371" fill="none" stroke="#000000" stroke-width="1" stroke-linecap="square"/>
<text x="760" y="397" fill="#000000" font-size="15" font-family="Arial" > Microgale longicaudata</text>
<polyline points="676,404 676,390 755,390" fill="none" stroke="#000000" stroke-width="1" stroke-linecap="square"/>
<text x="783" y="416" fill="#000000" font-size="15" font-family="Arial" > Microgale majori</text>
<polyline points="697,418 697,409 778,409" fill="none" stroke="#000000" stroke-width="1" stroke-linecap="square"/>
<text x="786" y="435" fill="#000000" font-size="15" font-family="Arial" > Microgale principula</text>
<polyline points="697,419 697,428 781,428" fill="none" stroke="#000000" stroke-width="1" stroke-linecap="square"/>
<polyline points="676,405 676,418 697,418" fill="none" stroke="#000000" stroke-width="1" stroke-linecap="square"/>
<polyline points="655,388 655,404 676,404" fill="none" stroke="#000000" stroke-width="1" stroke-linecap="square"/>
<polyline points="635,370 635,387 655,387" fill="none" stroke="#000000" stroke-width="1" stroke-linecap="square"/>
<polyline points="583,307 583,369 635,369" fill="none" stroke="#000000" stroke-width="1" stroke-linecap="square"/>
<polyline points="492,381 492,306 583,306" fill="none" stroke="#000000" stroke-width="1" stroke-linecap="square"/>
<text x="683" y="454" fill="#000000" font-size="15" font-family="Arial" > Oryzorictes hova</text>
<polyline points="622,456 622,447 678,447" fill="none" stroke="#000000" stroke-width="1" stroke-linecap="square"/>
<text x="687" y="473" fill="#000000" font-size="15" font-family="Arial" > Oryzorictes tetradactylus</text>
<polyline points="622,457 622,466 682,466" fill="none" stroke="#000000" stroke-width="1" stroke-linecap="square"/>
<polyline points="492,382 492,456 622,456" fill="none" stroke="#000000" stroke-width="1" stroke-linecap="square"/>
<polyline points="413,433 413,381 492,381" fill="none" stroke="#000000" stroke-width="1" stroke-linecap="square"/>
<text x="659" y="492" fill="#000000" font-size="15" font-family="Arial" > Geogale aurita</text>
<polyline points="413,434 413,485 654,485" fill="none" stroke="#000000" stroke-width="1" stroke-linecap="square"/>
<polyline points="366,476 366,433 413,433" fill="none" stroke="#000000" stroke-width="1" stroke-linecap="square"/>
<text x="590" y="511" fill="#000000" font-size="15" font-family="Arial" > Setifer setosus</text>
<polyline points="407,520 407,504 585,504" fill="none" stroke="#000000" stroke-width="1" stroke-linecap="square"/>
<text x="632" y="530" fill="#000000" font-size="15" font-family="Arial" > Tenrec ecaudatus</text>
<polyline points="498,537 498,523 627,523" fill="none" stroke="#000000" stroke-width="1" stroke-linecap="square"/>
<text x="663" y="549" fill="#000000" font-size="15" font-family="Arial" > Hemicentetes nigriceps</text>
<polyline points="611,551 611,542 658,542" fill="none" stroke="#000000" stroke-width="1" stroke-linecap="square"/>
<text x="686" y="568" fill="#000000" font-size="15" font-family="Arial" > Hemicentetes semispinosus</text>
<polyline points="611,552 611,561 681,561" fill="none" stroke="#000000" stroke-width="1" stroke-linecap="square"/>
<polyline points="498,538 498,551 611,551" fill="none" stroke="#000000" stroke-width="1" stroke-linecap="square"/>
<polyline points="407,521 407,537 498,537" fill="none" stroke="#000000" stroke-width="1" stroke-linecap="square"/>
<polyline points="366,477 366,520 407,520" fill="none" stroke="#000000" stroke-width="1" stroke-linecap="square"/>
<polyline points="40,528 40,476 366,476" fill="none" stroke="#000000" stroke-width="1" stroke-linecap="square"/>
<text x="838" y="587" fill="#000000" font-size="15" font-family="Arial" > Erinaceus europaeus</text>
<polyline points="40,529 40,580 833,580" fill="none" stroke="#000000" stroke-width="1" stroke-linecap="square"/>
<text x="589" y="566" fill="#000000" font-size="11" font-family="Tahoma" >100</text>
<text x="482" y="552" fill="#000000" font-size="11" font-family="Tahoma" >99</text>
<text x="600" y="471" fill="#000000" font-size="11" font-family="Tahoma" >100</text>
<text x="391" y="535" fill="#000000" font-size="11" font-family="Tahoma" >80</text>
<text x="730" y="186" fill="#000000" font-size="11" font-family="Tahoma" >100</text>
<text x="397" y="448" fill="#000000" font-size="11" font-family="Tahoma" >69</text>
<text x="692" y="338" fill="#000000" font-size="11" font-family="Tahoma" >100</text>
<text x="705" y="281" fill="#000000" font-size="11" font-family="Tahoma" >99</text>
<text x="705" y="224" fill="#000000" font-size="11" font-family="Tahoma" >100</text>
<text x="476" y="396" fill="#000000" font-size="11" font-family="Tahoma" >97</text>
<text x="680" y="172" fill="#000000" font-size="11" font-family="Tahoma" >100</text>
<text x="660" y="419" fill="#000000" font-size="11" font-family="Tahoma" >61</text>
<text x="681" y="433" fill="#000000" font-size="11" font-family="Tahoma" >44</text>
<text x="639" y="402" fill="#000000" font-size="11" font-family="Tahoma" >51</text>
<text x="619" y="384" fill="#000000" font-size="11" font-family="Tahoma" >99</text>
<text x="666" y="267" fill="#000000" font-size="11" font-family="Tahoma" >89</text>
<text x="705" y="67" fill="#000000" font-size="11" font-family="Tahoma" >87</text>
<text x="682" y="129" fill="#000000" font-size="11" font-family="Tahoma" >94</text>
<text x="729" y="53" fill="#000000" font-size="11" font-family="Tahoma" >56</text>
<text x="681" y="84" fill="#000000" font-size="11" font-family="Tahoma" >94</text>
<text x="653" y="106" fill="#000000" font-size="11" font-family="Tahoma" >93</text>
<text x="646" y="245" fill="#000000" font-size="11" font-family="Tahoma" >98</text>
<text x="635" y="139" fill="#000000" font-size="11" font-family="Tahoma" >96</text>
<text x="624" y="324" fill="#000000" font-size="11" font-family="Tahoma" >73</text>
<text x="595" y="258" fill="#000000" font-size="11" font-family="Tahoma" >64</text>
<text x="561" y="321" fill="#000000" font-size="11" font-family="Tahoma" >100</text>
<text x="611" y="192" fill="#000000" font-size="11" font-family="Tahoma" >50</text>
<line x1="60" y1="614" x2="256" y2="614" stroke="#000000" stroke-width="1" stroke-linecap="square"/>
<line x1="60" y1="610" x2="60" y2="618" stroke="#000000" stroke-width="1" stroke-linecap="square"/>
<line x1="256" y1="610" x2="256" y2="618" stroke="#000000" stroke-width="1" stroke-linecap="square"/>
<text x="149" y="644" fill="#000000" font-size="11" font-family="MS Sans Serif" >0.10</text>
<text x="835" y="36" fill="#000000" font-size="15" font-family="Arial" > Microgale cowani</text>
<polyline points="745,38 745,29 830,29" fill="none" stroke="#000000" stroke-width="1" stroke-linecap="square"/>
<text x="837" y="55" fill="#000000" font-size="15" font-family="Arial" > Microgale thomasi</text>
<polyline points="745,39 745,48 832,48" fill="none" stroke="#000000" stroke-width="1" stroke-linecap="square"/>
<polyline points="721,52 721,38 745,38" fill="none" stroke="#000000" stroke-width="1" stroke-linecap="square"/>
<text x="799" y="74" fill="#000000" font-size="15" font-family="Arial" > Microgale jobihely</text>
<polyline points="721,53 721,67 794,67" fill="none" stroke="#000000" stroke-width="1" stroke-linecap="square"/>
<polyline points="697,69 697,52 721,52" fill="none" stroke="#000000" stroke-width="1" stroke-linecap="square"/>
<text x="790" y="93" fill="#000000" font-size="15" font-family="Arial" > Microgale gracilis</text>
<polyline points="697,70 697,86 785,86" fill="none" stroke="#000000" stroke-width="1" stroke-linecap="square"/>
<polyline points="669,91 669,69 697,69" fill="none" stroke="#000000" stroke-width="1" stroke-linecap="square"/>
<text x="785" y="112" fill="#000000" font-size="15" font-family="Arial" > Microgale dryas</text>
<polyline points="698,114 698,105 780,105" fill="none" stroke="#000000" stroke-width="1" stroke-linecap="square"/>
<text x="770" y="131" fill="#000000" font-size="15" font-family="Arial" > Microgale gymnorhyncha</text>
<polyline points="698,115 698,124 765,124" fill="none" stroke="#000000" stroke-width="1" stroke-linecap="square"/>
<polyline points="669,92 669,114 698,114" fill="none" stroke="#000000" stroke-width="1" stroke-linecap="square"/>
<polyline points="651,124 651,91 669,91" fill="none" stroke="#000000" stroke-width="1" stroke-linecap="square"/>
<text x="777" y="150" fill="#000000" font-size="15" font-family="Arial" > Microgale soricoides</text>
<polyline points="702,157 702,143 772,143" fill="none" stroke="#000000" stroke-width="1" stroke-linecap="square"/>
<text x="786" y="169" fill="#000000" font-size="15" font-family="Arial" > Microgale fotsifotsy</text>
<polyline points="752,171 752,162 781,162" fill="none" stroke="#000000" stroke-width="1" stroke-linecap="square"/>
<text x="786" y="188" fill="#000000" font-size="15" font-family="Arial" > Microgale nasoloi</text>
<polyline points="752,172 752,181 781,181" fill="none" stroke="#000000" stroke-width="1" stroke-linecap="square"/>
<polyline points="702,158 702,171 752,171" fill="none" stroke="#000000" stroke-width="1" stroke-linecap="square"/>
<polyline points="651,125 651,157 702,157" fill="none" stroke="#000000" stroke-width="1" stroke-linecap="square"/>
<polyline points="627,177 627,124 651,124" fill="none" stroke="#000000" stroke-width="1" stroke-linecap="square"/>
<text x="812" y="207" fill="#000000" font-size="15" font-family="Arial" > Microgale brevicaudata</text>
<polyline points="727,209 727,200 807,200" fill="none" stroke="#000000" stroke-width="1" stroke-linecap="square"/>
<text x="818" y="226" fill="#000000" font-size="15" font-family="Arial" > Microgale grandidieri</text>
<polyline points="727,210 727,219 813,219" fill="none" stroke="#000000" stroke-width="1" stroke-linecap="square"/>
<polyline points="662,230 662,209 727,209" fill="none" stroke="#000000" stroke-width="1" stroke-linecap="square"/>
<text x="797" y="245" fill="#000000" font-size="15" font-family="Arial" > Microgale drouhardi</text>
<polyline points="682,252 682,238 792,238" fill="none" stroke="#000000" stroke-width="1" stroke-linecap="square"/>
<text x="806" y="264" fill="#000000" font-size="15" font-family="Arial" > Microgale monticola</text>
<polyline points="721,266 721,257 801,257" fill="none" stroke="#000000" stroke-width="1" stroke-linecap="square"/>
<text x="780" y="283" fill="#000000" font-size="15" font-family="Arial" > Microgale taiva</text>
<polyline points="721,267 721,276 775,276" fill="none" stroke="#000000" stroke-width="1" stroke-linecap="square"/>
<polyline points="682,253 682,266 721,266" fill="none" stroke="#000000" stroke-width="1" stroke-linecap="square"/>
<polyline points="662,231 662,252 682,252" fill="none" stroke="#000000" stroke-width="1" stroke-linecap="square"/>
<polyline points="627,178 627,230 662,230" fill="none" stroke="#000000" stroke-width="1" stroke-linecap="square"/>
<polyline points="611,243 611,177 627,177" fill="none" stroke="#000000" stroke-width="1" stroke-linecap="square"/>
<text x="764" y="302" fill="#000000" font-size="15" font-family="Arial" > Microgale parvula</text>
<polyline points="640,309 640,295 759,295" fill="none" stroke="#000000" stroke-width="1" stroke-linecap="square"/>
<text x="810" y="321" fill="#000000" font-size="15" font-family="Arial" > Nesogale dobsoni</text>
<polyline points="714,323 714,314 805,314" fill="none" stroke="#000000" stroke-width="1" stroke-linecap="square"/>
<text x="800" y="340" fill="#000000" font-size="15" font-family="Arial" > Nesogale talazaci</text>
<polyline points="714,324 714,333 795,333" fill="none" stroke="#000000" stroke-width="1" stroke-linecap="square"/>
<polyline points="640,310 640,323 714,323" fill="none" stroke="#000000" stroke-width="1" stroke-linecap="square"/>
<polyline points="611,244 611,309 640,309" fill="none" stroke="#000000" stroke-width="1" stroke-linecap="square"/>
<polyline points="583,306 583,243 611,243" fill="none" stroke="#000000" stroke-width="1" stroke-linecap="square"/>
<text x="722" y="359" fill="#000000" font-size="15" font-family="Arial" > Microgale pusilla</text>
<polyline points="635,369 635,352 717,352" fill="none" stroke="#000000" stroke-width="1" stroke-linecap="square"/>
<text x="742" y="378" fill="#000000" font-size="15" font-family="Arial" > Microgale jenkinsae</text>
<polyline points="655,387 655,371 737,371" fill="none" stroke="#000000" stroke-width="1" stroke-linecap="square"/>
<text x="760" y="397" fill="#000000" font-size="15" font-family="Arial" > Microgale longicaudata</text>
<polyline points="676,404 676,390 755,390" fill="none" stroke="#000000" stroke-width="1" stroke-linecap="square"/>
<text x="783" y="416" fill="#000000" font-size="15" font-family="Arial" > Microgale majori</text>
<polyline points="697,418 697,409 778,409" fill="none" stroke="#000000" stroke-width="1" stroke-linecap="square"/>
<text x="786" y="435" fill="#000000" font-size="15" font-family="Arial" > Microgale principula</text>
<polyline points="697,419 697,428 781,428" fill="none" stroke="#000000" stroke-width="1" stroke-linecap="square"/>
<polyline points="676,405 676,418 697,418" fill="none" stroke="#000000" stroke-width="1" stroke-linecap="square"/>
<polyline points="655,388 655,404 676,404" fill="none" stroke="#000000" stroke-width="1" stroke-linecap="square"/>
<polyline points="635,370 635,387 655,387" fill="none" stroke="#000000" stroke-width="1" stroke-linecap="square"/>
<polyline points="583,307 583,369 635,369" fill="none" stroke="#000000" stroke-width="1" stroke-linecap="square"/>
<polyline points="492,381 492,306 583,306" fill="none" stroke="#000000" stroke-width="1" stroke-linecap="square"/>
<text x="683" y="454" fill="#000000" font-size="15" font-family="Arial" > Oryzorictes hova</text>
<polyline points="622,456 622,447 678,447" fill="none" stroke="#000000" stroke-width="1" stroke-linecap="square"/>
<text x="687" y="473" fill="#000000" font-size="15" font-family="Arial" > Oryzorictes tetradactylus</text>
<polyline points="622,457 622,466 682,466" fill="none" stroke="#000000" stroke-width="1" stroke-linecap="square"/>
<polyline points="492,382 492,456 622,456" fill="none" stroke="#000000" stroke-width="1" stroke-linecap="square"/>
<polyline points="413,433 413,381 492,381" fill="none" stroke="#000000" stroke-width="1" stroke-linecap="square"/>
<text x="659" y="492" fill="#000000" font-size="15" font-family="Arial" > Geogale aurita</text>
<polyline points="413,434 413,485 654,485" fill="none" stroke="#000000" stroke-width="1" stroke-linecap="square"/>
<polyline points="366,476 366,433 413,433" fill="none" stroke="#000000" stroke-width="1" stroke-linecap="square"/>
<text x="590" y="511" fill="#000000" font-size="15" font-family="Arial" > Setifer setosus</text>
<polyline points="407,520 407,504 585,504" fill="none" stroke="#000000" stroke-width="1" stroke-linecap="square"/>
<text x="632" y="530" fill="#000000" font-size="15" font-family="Arial" > Tenrec ecaudatus</text>
<polyline points="498,537 498,523 627,523" fill="none" stroke="#000000" stroke-width="1" stroke-linecap="square"/>
<text x="663" y="549" fill="#000000" font-size="15" font-family="Arial" > Hemicentetes nigriceps</text>
<polyline points="611,551 611,542 658,542" fill="none" stroke="#000000" stroke-width="1" stroke-linecap="square"/>
<text x="686" y="568" fill="#000000" font-size="15" font-family="Arial" > Hemicentetes semispinosus</text>
<polyline points="611,552 611,561 681,561" fill="none" stroke="#000000" stroke-width="1" stroke-linecap="square"/>
<polyline points="498,538 498,551 611,551" fill="none" stroke="#000000" stroke-width="1" stroke-linecap="square"/>
<polyline points="407,521 407,537 498,537" fill="none" stroke="#000000" stroke-width="1" stroke-linecap="square"/>
<polyline points="366,477 366,520 407,520" fill="none" stroke="#000000" stroke-width="1" stroke-linecap="square"/>
<polyline points="40,528 40,476 366,476" fill="none" stroke="#000000" stroke-width="1" stroke-linecap="square"/>
<text x="838" y="587" fill="#000000" font-size="15" font-family="Arial" > Erinaceus europaeus</text>
<polyline points="40,529 40,580 833,580" fill="none" stroke="#000000" stroke-width="1" stroke-linecap="square"/>
<text x="589" y="566" fill="#000000" font-size="11" font-family="Tahoma" >100</text>
<text x="482" y="552" fill="#000000" font-size="11" font-family="Tahoma" >99</text>
<text x="600" y="471" fill="#000000" font-size="11" font-family="Tahoma" >100</text>
<text x="391" y="535" fill="#000000" font-size="11" font-family="Tahoma" >80</text>
<text x="730" y="186" fill="#000000" font-size="11" font-family="Tahoma" >100</text>
<text x="397" y="448" fill="#000000" font-size="11" font-family="Tahoma" >69</text>
<text x="692" y="338" fill="#000000" font-size="11" font-family="Tahoma" >100</text>
<text x="705" y="281" fill="#000000" font-size="11" font-family="Tahoma" >99</text>
<text x="705" y="224" fill="#000000" font-size="11" font-family="Tahoma" >100</text>
<text x="476" y="396" fill="#000000" font-size="11" font-family="Tahoma" >97</text>
<text x="680" y="172" fill="#000000" font-size="11" font-family="Tahoma" >100</text>
<text x="660" y="419" fill="#000000" font-size="11" font-family="Tahoma" >61</text>
<text x="681" y="433" fill="#000000" font-size="11" font-family="Tahoma" >44</text>
<text x="639" y="402" fill="#000000" font-size="11" font-family="Tahoma" >51</text>
<text x="619" y="384" fill="#000000" font-size="11" font-family="Tahoma" >99</text>
<text x="666" y="267" fill="#000000" font-size="11" font-family="Tahoma" >89</text>
<text x="705" y="67" fill="#000000" font-size="11" font-family="Tahoma" >87</text>
<text x="682" y="129" fill="#000000" font-size="11" font-family="Tahoma" >94</text>
<text x="729" y="53" fill="#000000" font-size="11" font-family="Tahoma" >56</text>
<text x="681" y="84" fill="#000000" font-size="11" font-family="Tahoma" >94</text>
<text x="653" y="106" fill="#000000" font-size="11" font-family="Tahoma" >93</text>
<text x="646" y="245" fill="#000000" font-size="11" font-family="Tahoma" >98</text>
<text x="635" y="139" fill="#000000" font-size="11" font-family="Tahoma" >96</text>
<text x="624" y="324" fill="#000000" font-size="11" font-family="Tahoma" >73</text>
<text x="595" y="258" fill="#000000" font-size="11" font-family="Tahoma" >64</text>
<text x="561" y="321" fill="#000000" font-size="11" font-family="Tahoma" >100</text>
<text x="611" y="192" fill="#000000" font-size="11" font-family="Tahoma" >50</text>
<line x1="60" y1="614" x2="256" y2="614" stroke="#000000" stroke-width="1" stroke-linecap="square"/>
<line x1="60" y1="610" x2="60" y2="618" stroke="#000000" stroke-width="1" stroke-linecap="square"/>
<line x1="256" y1="610" x2="256" y2="618" stroke="#000000" stroke-width="1" stroke-linecap="square"/>
<text x="149" y="644" fill="#000000" font-size="11" font-family="MS Sans Serif" >0.10</text>
</svg>
