<svg xmlns="http://www.w3.org/2000/svg" xmlns:xlink="http://www.w3.org/1999/xlink" version="1.1" width="1060" height="680" name="nj_2.svg" y="0" viewBox="0 0 1060 680">
<polyline points="1060,680 0,680 0,0 1060,0 1060,680" fill="white" />
<text x="799" y="36" fill="#000000" font-size="15" font-family="Arial" > Microgale cowani</text>
<polyline points="698,38 698,29 794,29" fill="none" stroke="#000000" stroke-width="1" stroke-linecap="square"/>
<text x="789" y="55" fill="#000000" font-size="15" font-family="Arial" > Microgale jobihely</text>
<polyline points="698,39 698,48 784,48" fill="none" stroke="#000000" stroke-width="1" stroke-linecap="square"/>
<polyline points="689,52 689,38 698,38" fill="none" stroke="#000000" stroke-width="1" stroke-linecap="square"/>
<text x="792" y="74" fill="#000000" font-size="15" font-family="Arial" > Microgale thomasi</text>
<polyline points="689,53 689,67 787,67" fill="none" stroke="#000000" stroke-width="1" stroke-linecap="square"/>
<polyline points="682,69 682,52 689,52" fill="none" stroke="#000000" stroke-width="1" stroke-linecap="square"/>
<text x="788" y="93" fill="#000000" font-size="15" font-family="Arial" > Microgale gracilis</text>
<polyline points="682,70 682,86 783,86" fill="none" stroke="#000000" stroke-width="1" stroke-linecap="square"/>
<polyline points="672,91 672,69 682,69" fill="none" stroke="#000000" stroke-width="1" stroke-linecap="square"/>
<text x="784" y="112" fill="#000000" font-size="15" font-family="Arial" > Microgale dryas</text>
<polyline points="690,114 690,105 779,105" fill="none" stroke="#000000" stroke-width="1" stroke-linecap="square"/>
<text x="779" y="131" fill="#000000" font-size="15" font-family="Arial" > Microgale gymnorhyncha</text>
<polyline points="690,115 690,124 774,124" fill="none" stroke="#000000" stroke-width="1" stroke-linecap="square"/>
<polyline points="672,92 672,114 690,114" fill="none" stroke="#000000" stroke-width="1" stroke-linecap="square"/>
<polyline points="661,124 661,91 672,91" fill="none" stroke="#000000" stroke-width="1" stroke-linecap="square"/>
<text x="791" y="150" fill="#000000" font-size="15" font-family="Arial" > Microgale soricoides</text>
<polyline points="703,157 703,143 786,143" fill="none" stroke="#000000" stroke-width="1" stroke-linecap="square"/>
<text x="788" y="169" fill="#000000" font-size="15" font-family="Arial" > Microgale fotsifotsy</text>
<polyline points="753,171 753,162 783,162" fill="none" stroke="#000000" stroke-width="1" stroke-linecap="square"/>
<text x="795" y="188" fill="#000000" font-size="15" font-family="Arial" > Microgale nasoloi</text>
<polyline points="753,172 753,181 790,181" fill="none" stroke="#000000" stroke-width="1" stroke-linecap="square"/>
<polyline points="703,158 703,171 753,171" fill="none" stroke="#000000" stroke-width="1" stroke-linecap="square"/>
<polyline points="661,125 661,157 703,157" fill="none" stroke="#000000" stroke-width="1" stroke-linecap="square"/>
<polyline points="644,169 644,124 661,124" fill="none" stroke="#000000" stroke-width="1" stroke-linecap="square"/>
<text x="787" y="207" fill="#000000" font-size="15" font-family="Arial" > Microgale parvula</text>
<polyline points="648,214 648,200 782,200" fill="none" stroke="#000000" stroke-width="1" stroke-linecap="square"/>
<text x="810" y="226" fill="#000000" font-size="15" font-family="Arial" > Nesogale dobsoni</text>
<polyline points="707,228 707,219 805,219" fill="none" stroke="#000000" stroke-width="1" stroke-linecap="square"/>
<text x="810" y="245" fill="#000000" font-size="15" font-family="Arial" > Nesogale talazaci</text>
<polyline points="707,229 707,238 805,238" fill="none" stroke="#000000" stroke-width="1" stroke-linecap="square"/>
<polyline points="648,215 648,228 707,228" fill="none" stroke="#000000" stroke-width="1" stroke-linecap="square"/>
<polyline points="644,170 644,214 648,214" fill="none" stroke="#000000" stroke-width="1" stroke-linecap="square"/>
<polyline points="637,228 637,169 644,169" fill="none" stroke="#000000" stroke-width="1" stroke-linecap="square"/>
<text x="796" y="264" fill="#000000" font-size="15" font-family="Arial" > Microgale brevicaudata</text>
<polyline points="697,266 697,257 791,257" fill="none" stroke="#000000" stroke-width="1" stroke-linecap="square"/>
<text x="797" y="283" fill="#000000" font-size="15" font-family="Arial" > Microgale grandidieri</text>
<polyline points="697,267 697,276 792,276" fill="none" stroke="#000000" stroke-width="1" stroke-linecap="square"/>
<polyline points="655,287 655,266 697,266" fill="none" stroke="#000000" stroke-width="1" stroke-linecap="square"/>
<text x="796" y="302" fill="#000000" font-size="15" font-family="Arial" > Microgale drouhardi</text>
<polyline points="670,309 670,295 791,295" fill="none" stroke="#000000" stroke-width="1" stroke-linecap="square"/>
<text x="785" y="321" fill="#000000" font-size="15" font-family="Arial" > Microgale monticola</text>
<polyline points="699,323 699,314 780,314" fill="none" stroke="#000000" stroke-width="1" stroke-linecap="square"/>
<text x="777" y="340" fill="#000000" font-size="15" font-family="Arial" > Microgale taiva</text>
<polyline points="699,324 699,333 772,333" fill="none" stroke="#000000" stroke-width="1" stroke-linecap="square"/>
<polyline points="670,310 670,323 699,323" fill="none" stroke="#000000" stroke-width="1" stroke-linecap="square"/>
<polyline points="655,288 655,309 670,309" fill="none" stroke="#000000" stroke-width="1" stroke-linecap="square"/>
<polyline points="637,229 637,287 655,287" fill="none" stroke="#000000" stroke-width="1" stroke-linecap="square"/>
<polyline points="635,298 635,228 637,228" fill="none" stroke="#000000" stroke-width="1" stroke-linecap="square"/>
<text x="778" y="359" fill="#000000" font-size="15" font-family="Arial" > Microgale pusilla</text>
<polyline points="678,369 678,352 773,352" fill="none" stroke="#000000" stroke-width="1" stroke-linecap="square"/>
<text x="783" y="378" fill="#000000" font-size="15" font-family="Arial" > Microgale jenkinsae</text>
<polyline points="682,387 682,371 778,371" fill="none" stroke="#000000" stroke-width="1" stroke-linecap="square"/>
<text x="785" y="397" fill="#000000" font-size="15" font-family="Arial" > Microgale majori</text>
<polyline points="691,404 691,390 780,390" fill="none" stroke="#000000" stroke-width="1" stroke-linecap="square"/>
<text x="798" y="416" fill="#000000" font-size="15" font-family="Arial" > Microgale longicaudata</text>
<polyline points="696,418 696,409 793,409" fill="none" stroke="#000000" stroke-width="1" stroke-linecap="square"/>
<text x="793" y="435" fill="#000000" font-size="15" font-family="Arial" > Microgale principula</text>
<polyline points="696,419 696,428 788,428" fill="none" stroke="#000000" stroke-width="1" stroke-linecap="square"/>
<polyline points="691,405 691,418 696,418" fill="none" stroke="#000000" stroke-width="1" stroke-linecap="square"/>
<polyline points="682,388 682,404 691,404" fill="none" stroke="#000000" stroke-width="1" stroke-linecap="square"/>
<polyline points="678,370 678,387 682,387" fill="none" stroke="#000000" stroke-width="1" stroke-linecap="square"/>
<polyline points="635,299 635,369 678,369" fill="none" stroke="#000000" stroke-width="1" stroke-linecap="square"/>
<polyline points="582,377 582,298 635,298" fill="none" stroke="#000000" stroke-width="1" stroke-linecap="square"/>
<text x="786" y="454" fill="#000000" font-size="15" font-family="Arial" > Oryzorictes hova</text>
<polyline points="715,456 715,447 781,447" fill="none" stroke="#000000" stroke-width="1" stroke-linecap="square"/>
<text x="786" y="473" fill="#000000" font-size="15" font-family="Arial" > Oryzorictes tetradactylus</text>
<polyline points="715,457 715,466 781,466" fill="none" stroke="#000000" stroke-width="1" stroke-linecap="square"/>
<polyline points="582,378 582,456 715,456" fill="none" stroke="#000000" stroke-width="1" stroke-linecap="square"/>
<polyline points="544,431 544,377 582,377" fill="none" stroke="#000000" stroke-width="1" stroke-linecap="square"/>
<text x="824" y="492" fill="#000000" font-size="15" font-family="Arial" > Geogale aurita</text>
<polyline points="544,432 544,485 819,485" fill="none" stroke="#000000" stroke-width="1" stroke-linecap="square"/>
<polyline points="532,475 532,431 544,431" fill="none" stroke="#000000" stroke-width="1" stroke-linecap="square"/>
<text x="786" y="511" fill="#000000" font-size="15" font-family="Arial" > Setifer setosus</text>
<polyline points="576,520 576,504 781,504" fill="none" stroke="#000000" stroke-width="1" stroke-linecap="square"/>
<text x="786" y="530" fill="#000000" font-size="15" font-family="Arial" > Tenrec ecaudatus</text>
<polyline points="641,537 641,523 781,523" fill="none" stroke="#000000" stroke-width="1" stroke-linecap="square"/>
<text x="825" y="549" fill="#000000" font-size="15" font-family="Arial" > Hemicentetes nigriceps</text>
<polyline points="759,551 759,542 820,542" fill="none" stroke="#000000" stroke-width="1" stroke-linecap="square"/>
<text x="837" y="568" fill="#000000" font-size="15" font-family="Arial" > Hemicentetes semispinosus</text>
<polyline points="759,552 759,561 832,561" fill="none" stroke="#000000" stroke-width="1" stroke-linecap="square"/>
<polyline points="641,538 641,551 759,551" fill="none" stroke="#000000" stroke-width="1" stroke-linecap="square"/>
<polyline points="576,521 576,537 641,537" fill="none" stroke="#000000" stroke-width="1" stroke-linecap="square"/>
<polyline points="532,476 532,520 576,520" fill="none" stroke="#000000" stroke-width="1" stroke-linecap="square"/>
<polyline points="40,527 40,475 532,475" fill="none" stroke="#000000" stroke-width="1" stroke-linecap="square"/>
<text x="838" y="587" fill="#000000" font-size="15" font-family="Arial" > Erinaceus europaeus</text>
<polyline points="40,528 40,580 833,580" fill="none" stroke="#000000" stroke-width="1" stroke-linecap="square"/>
<text x="737" y="566" fill="#000000" font-size="11" font-family="Tahoma" >100</text>
<text x="619" y="552" fill="#000000" font-size="11" font-family="Tahoma" >100</text>
<text x="693" y="471" fill="#000000" font-size="11" font-family="Tahoma" >100</text>
<text x="560" y="535" fill="#000000" font-size="11" font-family="Tahoma" >95</text>
<text x="731" y="186" fill="#000000" font-size="11" font-family="Tahoma" >100</text>
<text x="528" y="446" fill="#000000" font-size="11" font-family="Tahoma" >58</text>
<text x="685" y="243" fill="#000000" font-size="11" font-family="Tahoma" >100</text>
<text x="677" y="338" fill="#000000" font-size="11" font-family="Tahoma" >100</text>
<text x="675" y="281" fill="#000000" font-size="11" font-family="Tahoma" >100</text>
<text x="566" y="392" fill="#000000" font-size="11" font-family="Tahoma" >98</text>
<text x="681" y="172" fill="#000000" font-size="11" font-family="Tahoma" >100</text>
<text x="680" y="433" fill="#000000" font-size="11" font-family="Tahoma" >52</text>
<text x="675" y="419" fill="#000000" font-size="11" font-family="Tahoma" >66</text>
<text x="666" y="402" fill="#000000" font-size="11" font-family="Tahoma" >63</text>
<text x="656" y="384" fill="#000000" font-size="11" font-family="Tahoma" >100</text>
<text x="654" y="324" fill="#000000" font-size="11" font-family="Tahoma" >99</text>
<text x="682" y="53" fill="#000000" font-size="11" font-family="Tahoma" >73</text>
<text x="674" y="129" fill="#000000" font-size="11" font-family="Tahoma" >91</text>
<text x="673" y="67" fill="#000000" font-size="11" font-family="Tahoma" >84</text>
<text x="666" y="84" fill="#000000" font-size="11" font-family="Tahoma" >77</text>
<text x="656" y="106" fill="#000000" font-size="11" font-family="Tahoma" >94</text>
<text x="639" y="302" fill="#000000" font-size="11" font-family="Tahoma" >96</text>
<text x="645" y="139" fill="#000000" font-size="11" font-family="Tahoma" >99</text>
<text x="632" y="229" fill="#000000" font-size="11" font-family="Tahoma" >59</text>
<text x="628" y="184" fill="#000000" font-size="11" font-family="Tahoma" >48</text>
<text x="613" y="313" fill="#000000" font-size="11" font-family="Tahoma" >100</text>
<text x="624" y="243" fill="#000000" font-size="11" font-family="Tahoma" >45</text>
<line x1="60" y1="614" x2="173" y2="614" stroke="#000000" stroke-width="1" stroke-linecap="square"/>
<line x1="60" y1="610" x2="60" y2="618" stroke="#000000" stroke-width="1" stroke-linecap="square"/>
<line x1="173" y1="610" x2="173" y2="618" stroke="#000000" stroke-width="1" stroke-linecap="square"/>
<text x="105" y="644" fill="#000000" font-size="11" font-family="MS Sans Serif" >0.050</text>
<text x="799" y="36" fill="#000000" font-size="15" font-family="Arial" > Microgale cowani</text>
<polyline points="698,38 698,29 794,29" fill="none" stroke="#000000" stroke-width="1" stroke-linecap="square"/>
<text x="789" y="55" fill="#000000" font-size="15" font-family="Arial" > Microgale jobihely</text>
<polyline points="698,39 698,48 784,48" fill="none" stroke="#000000" stroke-width="1" stroke-linecap="square"/>
<polyline points="689,52 689,38 698,38" fill="none" stroke="#000000" stroke-width="1" stroke-linecap="square"/>
<text x="792" y="74" fill="#000000" font-size="15" font-family="Arial" > Microgale thomasi</text>
<polyline points="689,53 689,67 787,67" fill="none" stroke="#000000" stroke-width="1" stroke-linecap="square"/>
<polyline points="682,69 682,52 689,52" fill="none" stroke="#000000" stroke-width="1" stroke-linecap="square"/>
<text x="788" y="93" fill="#000000" font-size="15" font-family="Arial" > Microgale gracilis</text>
<polyline points="682,70 682,86 783,86" fill="none" stroke="#000000" stroke-width="1" stroke-linecap="square"/>
<polyline points="672,91 672,69 682,69" fill="none" stroke="#000000" stroke-width="1" stroke-linecap="square"/>
<text x="784" y="112" fill="#000000" font-size="15" font-family="Arial" > Microgale dryas</text>
<polyline points="690,114 690,105 779,105" fill="none" stroke="#000000" stroke-width="1" stroke-linecap="square"/>
<text x="779" y="131" fill="#000000" font-size="15" font-family="Arial" > Microgale gymnorhyncha</text>
<polyline points="690,115 690,124 774,124" fill="none" stroke="#000000" stroke-width="1" stroke-linecap="square"/>
<polyline points="672,92 672,114 690,114" fill="none" stroke="#000000" stroke-width="1" stroke-linecap="square"/>
<polyline points="661,124 661,91 672,91" fill="none" stroke="#000000" stroke-width="1" stroke-linecap="square"/>
<text x="791" y="150" fill="#000000" font-size="15" font-family="Arial" > Microgale soricoides</text>
<polyline points="703,157 703,143 786,143" fill="none" stroke="#000000" stroke-width="1" stroke-linecap="square"/>
<text x="788" y="169" fill="#000000" font-size="15" font-family="Arial" > Microgale fotsifotsy</text>
<polyline points="753,171 753,162 783,162" fill="none" stroke="#000000" stroke-width="1" stroke-linecap="square"/>
<text x="795" y="188" fill="#000000" font-size="15" font-family="Arial" > Microgale nasoloi</text>
<polyline points="753,172 753,181 790,181" fill="none" stroke="#000000" stroke-width="1" stroke-linecap="square"/>
<polyline points="703,158 703,171 753,171" fill="none" stroke="#000000" stroke-width="1" stroke-linecap="square"/>
<polyline points="661,125 661,157 703,157" fill="none" stroke="#000000" stroke-width="1" stroke-linecap="square"/>
<polyline points="644,169 644,124 661,124" fill="none" stroke="#000000" stroke-width="1" stroke-linecap="square"/>
<text x="787" y="207" fill="#000000" font-size="15" font-family="Arial" > Microgale parvula</text>
<polyline points="648,214 648,200 782,200" fill="none" stroke="#000000" stroke-width="1" stroke-linecap="square"/>
<text x="810" y="226" fill="#000000" font-size="15" font-family="Arial" > Nesogale dobsoni</text>
<polyline points="707,228 707,219 805,219" fill="none" stroke="#000000" stroke-width="1" stroke-linecap="square"/>
<text x="810" y="245" fill="#000000" font-size="15" font-family="Arial" > Nesogale talazaci</text>
<polyline points="707,229 707,238 805,238" fill="none" stroke="#000000" stroke-width="1" stroke-linecap="square"/>
<polyline points="648,215 648,228 707,228" fill="none" stroke="#000000" stroke-width="1" stroke-linecap="square"/>
<polyline points="644,170 644,214 648,214" fill="none" stroke="#000000" stroke-width="1" stroke-linecap="square"/>
<polyline points="637,228 637,169 644,169" fill="none" stroke="#000000" stroke-width="1" stroke-linecap="square"/>
<text x="796" y="264" fill="#000000" font-size="15" font-family="Arial" > Microgale brevicaudata</text>
<polyline points="697,266 697,257 791,257" fill="none" stroke="#000000" stroke-width="1" stroke-linecap="square"/>
<text x="797" y="283" fill="#000000" font-size="15" font-family="Arial" > Microgale grandidieri</text>
<polyline points="697,267 697,276 792,276" fill="none" stroke="#000000" stroke-width="1" stroke-linecap="square"/>
<polyline points="655,287 655,266 697,266" fill="none" stroke="#000000" stroke-width="1" stroke-linecap="square"/>
<text x="796" y="302" fill="#000000" font-size="15" font-family="Arial" > Microgale drouhardi</text>
<polyline points="670,309 670,295 791,295" fill="none" stroke="#000000" stroke-width="1" stroke-linecap="square"/>
<text x="785" y="321" fill="#000000" font-size="15" font-family="Arial" > Microgale monticola</text>
<polyline points="699,323 699,314 780,314" fill="none" stroke="#000000" stroke-width="1" stroke-linecap="square"/>
<text x="777" y="340" fill="#000000" font-size="15" font-family="Arial" > Microgale taiva</text>
<polyline points="699,324 699,333 772,333" fill="none" stroke="#000000" stroke-width="1" stroke-linecap="square"/>
<polyline points="670,310 670,323 699,323" fill="none" stroke="#000000" stroke-width="1" stroke-linecap="square"/>
<polyline points="655,288 655,309 670,309" fill="none" stroke="#000000" stroke-width="1" stroke-linecap="square"/>
<polyline points="637,229 637,287 655,287" fill="none" stroke="#000000" stroke-width="1" stroke-linecap="square"/>
<polyline points="635,298 635,228 637,228" fill="none" stroke="#000000" stroke-width="1" stroke-linecap="square"/>
<text x="778" y="359" fill="#000000" font-size="15" font-family="Arial" > Microgale pusilla</text>
<polyline points="678,369 678,352 773,352" fill="none" stroke="#000000" stroke-width="1" stroke-linecap="square"/>
<text x="783" y="378" fill="#000000" font-size="15" font-family="Arial" > Microgale jenkinsae</text>
<polyline points="682,387 682,371 778,371" fill="none" stroke="#000000" stroke-width="1" stroke-linecap="square"/>
<text x="785" y="397" fill="#000000" font-size="15" font-family="Arial" > Microgale majori</text>
<polyline points="691,404 691,390 780,390" fill="none" stroke="#000000" stroke-width="1" stroke-linecap="square"/>
<text x="798" y="416" fill="#000000" font-size="15" font-family="Arial" > Microgale longicaudata</text>
<polyline points="696,418 696,409 793,409" fill="none" stroke="#000000" stroke-width="1" stroke-linecap="square"/>
<text x="793" y="435" fill="#000000" font-size="15" font-family="Arial" > Microgale principula</text>
<polyline points="696,419 696,428 788,428" fill="none" stroke="#000000" stroke-width="1" stroke-linecap="square"/>
<polyline points="691,405 691,418 696,418" fill="none" stroke="#000000" stroke-width="1" stroke-linecap="square"/>
<polyline points="682,388 682,404 691,404" fill="none" stroke="#000000" stroke-width="1" stroke-linecap="square"/>
<polyline points="678,370 678,387 682,387" fill="none" stroke="#000000" stroke-width="1" stroke-linecap="square"/>
<polyline points="635,299 635,369 678,369" fill="none" stroke="#000000" stroke-width="1" stroke-linecap="square"/>
<polyline points="582,377 582,298 635,298" fill="none" stroke="#000000" stroke-width="1" stroke-linecap="square"/>
<text x="786" y="454" fill="#000000" font-size="15" font-family="Arial" > Oryzorictes hova</text>
<polyline points="715,456 715,447 781,447" fill="none" stroke="#000000" stroke-width="1" stroke-linecap="square"/>
<text x="786" y="473" fill="#000000" font-size="15" font-family="Arial" > Oryzorictes tetradactylus</text>
<polyline points="715,457 715,466 781,466" fill="none" stroke="#000000" stroke-width="1" stroke-linecap="square"/>
<polyline points="582,378 582,456 715,456" fill="none" stroke="#000000" stroke-width="1" stroke-linecap="square"/>
<polyline points="544,431 544,377 582,377" fill="none" stroke="#000000" stroke-width="1" stroke-linecap="square"/>
<text x="824" y="492" fill="#000000" font-size="15" font-family="Arial" > Geogale aurita</text>
<polyline points="544,432 544,485 819,485" fill="none" stroke="#000000" stroke-width="1" stroke-linecap="square"/>
<polyline points="532,475 532,431 544,431" fill="none" stroke="#000000" stroke-width="1" stroke-linecap="square"/>
<text x="786" y="511" fill="#000000" font-size="15" font-family="Arial" > Setifer setosus</text>
<polyline points="576,520 576,504 781,504" fill="none" stroke="#000000" stroke-width="1" stroke-linecap="square"/>
<text x="786" y="530" fill="#000000" font-size="15" font-family="Arial" > Tenrec ecaudatus</text>
<polyline points="641,537 641,523 781,523" fill="none" stroke="#000000" stroke-width="1" stroke-linecap="square"/>
<text x="825" y="549" fill="#000000" font-size="15" font-family="Arial" > Hemicentetes nigriceps</text>
<polyline points="759,551 759,542 820,542" fill="none" stroke="#000000" stroke-width="1" stroke-linecap="square"/>
<text x="837" y="568" fill="#000000" font-size="15" font-family="Arial" > Hemicentetes semispinosus</text>
<polyline points="759,552 759,561 832,561" fill="none" stroke="#000000" stroke-width="1" stroke-linecap="square"/>
<polyline points="641,538 641,551 759,551" fill="none" stroke="#000000" stroke-width="1" stroke-linecap="square"/>
<polyline points="576,521 576,537 641,537" fill="none" stroke="#000000" stroke-width="1" stroke-linecap="square"/>
<polyline points="532,476 532,520 576,520" fill="none" stroke="#000000" stroke-width="1" stroke-linecap="square"/>
<polyline points="40,527 40,475 532,475" fill="none" stroke="#000000" stroke-width="1" stroke-linecap="square"/>
<text x="838" y="587" fill="#000000" font-size="15" font-family="Arial" > Erinaceus europaeus</text>
<polyline points="40,528 40,580 833,580" fill="none" stroke="#000000" stroke-width="1" stroke-linecap="square"/>
<text x="737" y="566" fill="#000000" font-size="11" font-family="Tahoma" >100</text>
<text x="619" y="552" fill="#000000" font-size="11" font-family="Tahoma" >100</text>
<text x="693" y="471" fill="#000000" font-size="11" font-family="Tahoma" >100</text>
<text x="560" y="535" fill="#000000" font-size="11" font-family="Tahoma" >95</text>
<text x="731" y="186" fill="#000000" font-size="11" font-family="Tahoma" >100</text>
<text x="528" y="446" fill="#000000" font-size="11" font-family="Tahoma" >58</text>
<text x="685" y="243" fill="#000000" font-size="11" font-family="Tahoma" >100</text>
<text x="677" y="338" fill="#000000" font-size="11" font-family="Tahoma" >100</text>
<text x="675" y="281" fill="#000000" font-size="11" font-family="Tahoma" >100</text>
<text x="566" y="392" fill="#000000" font-size="11" font-family="Tahoma" >98</text>
<text x="681" y="172" fill="#000000" font-size="11" font-family="Tahoma" >100</text>
<text x="680" y="433" fill="#000000" font-size="11" font-family="Tahoma" >52</text>
<text x="675" y="419" fill="#000000" font-size="11" font-family="Tahoma" >66</text>
<text x="666" y="402" fill="#000000" font-size="11" font-family="Tahoma" >63</text>
<text x="656" y="384" fill="#000000" font-size="11" font-family="Tahoma" >100</text>
<text x="654" y="324" fill="#000000" font-size="11" font-family="Tahoma" >99</text>
<text x="682" y="53" fill="#000000" font-size="11" font-family="Tahoma" >73</text>
<text x="674" y="129" fill="#000000" font-size="11" font-family="Tahoma" >91</text>
<text x="673" y="67" fill="#000000" font-size="11" font-family="Tahoma" >84</text>
<text x="666" y="84" fill="#000000" font-size="11" font-family="Tahoma" >77</text>
<text x="656" y="106" fill="#000000" font-size="11" font-family="Tahoma" >94</text>
<text x="639" y="302" fill="#000000" font-size="11" font-family="Tahoma" >96</text>
<text x="645" y="139" fill="#000000" font-size="11" font-family="Tahoma" >99</text>
<text x="632" y="229" fill="#000000" font-size="11" font-family="Tahoma" >59</text>
<text x="628" y="184" fill="#000000" font-size="11" font-family="Tahoma" >48</text>
<text x="613" y="313" fill="#000000" font-size="11" font-family="Tahoma" >100</text>
<text x="624" y="243" fill="#000000" font-size="11" font-family="Tahoma" >45</text>
<line x1="60" y1="614" x2="173" y2="614" stroke="#000000" stroke-width="1" stroke-linecap="square"/>
<line x1="60" y1="610" x2="60" y2="618" stroke="#000000" stroke-width="1" stroke-linecap="square"/>
<line x1="173" y1="610" x2="173" y2="618" stroke="#000000" stroke-width="1" stroke-linecap="square"/>
<text x="105" y="644" fill="#000000" font-size="11" font-family="MS Sans Serif" >0.050</text>
</svg>
